<svg xmlns="http://www.w3.org/2000/svg" width="283" height="325" viewBox="0 0 283 325">
  <title>Artboard 19</title>
  <g id="Layer_1" data-name="Layer 1">
    <g>
      <path d="M282.54,141.52A141.48,141.48,0,1,0,45.84,246.17L34.65,325H83.2V279.44h25.36V325H127.1V279.44h25.36V325h20.17V279.44H198V325h50.8l-11.33-79.94A141.1,141.1,0,0,0,282.54,141.52Zm-246.8-5.17a44.64,44.64,0,0,1,2-13.25l86.67,20a44.59,44.59,0,0,1-88.67-6.76Zm125,6.63,86.64-20a44.59,44.59,0,1,1-86.64,20Z"/>
      <path d="M124.41,143.11l-86.67-20a44.6,44.6,0,1,0,86.67,20Z" style="fill: #fff"/>
      <path d="M204.82,180.94a44.62,44.62,0,0,0,42.55-58l-86.64,20A44.59,44.59,0,0,0,204.82,180.94Z" style="fill: #fff"/>
      <rect x="83.2" y="279.44" width="25.37" height="45.56" style="fill: #fff"/>
      <rect x="172.63" y="279.44" width="25.37" height="45.56" style="fill: #fff"/>
      <rect x="127.1" y="279.44" width="25.37" height="45.56" style="fill: #fff"/>
    </g>
  </g>
</svg>
